{
  "accessors": [
    {
      "bufferView": 2,
      "componentType": 5126,
      "count": 3056,
      "max": [
        0.9744865298271179,
        0.988480269908905,
        0.97035813331604
      ],
      "min": [
        -0.9770587086677551,
        -0.9857467412948608,
        -0.9737298488616943
      ],
      "type": "VEC3"
    },
    {
      "bufferView": 2,
      "byteOffset": 36672,
      "componentType": 5126,
      "count": 3056,
      "max": [
        0.9947509765625,
        0.9999227523803711,
        0.9909446835517883
      ],
      "min": [
        -0.999739408493042,
        -0.9997789263725281,
        -0.9999581575393677
      ],
      "type": "VEC3"
    },
    {
      "bufferView": 1,
      "componentType": 5126,
      "count": 3056,
      "max": [
        1.0,
        1.0
      ],
      "min": [
        0.0,
        0.0
      ],
      "type": "VEC2"
    },
    {
      "bufferView": 0,
      "componentType": 5125,
      "count": 4338,
      "type": "SCALAR"
    },
    {
      "bufferView": 2,
      "byteOffset": 73344,
      "componentType": 5126,
      "count": 1984,
      "max": [
        0.9999997019767761,
        1.0,
        0.9999993443489075
      ],
      "min": [
        -0.9999990463256836,
        -1.0,
        -1.0
      ],
      "type": "VEC3"
    },
    {
      "bufferView": 2,
      "byteOffset": 97152,
      "componentType": 5126,
      "count": 1984,
      "max": [
        0.9904384613037109,
        0.9951385855674744,
        0.9904385805130005
      ],
      "min": [
        -0.99043869972229,
        -0.9951385259628296,
        -0.9904382824897766
      ],
      "type": "VEC3"
    },
    {
      "bufferView": 1,
      "byteOffset": 24448,
      "componentType": 5126,
      "count": 1984,
      "max": [
        1.0,
        1.0
      ],
      "min": [
        0.0,
        0.0
      ],
      "type": "VEC2"
    },
    {
      "bufferView": 0,
      "byteOffset": 17352,
      "componentType": 5125,
      "count": 2880,
      "type": "SCALAR"
    },
    {
      "bufferView": 2,
      "byteOffset": 120960,
      "componentType": 5126,
      "count": 3172,
      "max": [
        0.9963395595550537,
        0.8892731666564941,
        2.7209057807922363
      ],
      "min": [
        -0.9952573776245117,
        -0.9135493636131287,
        0.7287627458572388
      ],
      "type": "VEC3"
    },
    {
      "bufferView": 2,
      "byteOffset": 159024,
      "componentType": 5126,
      "count": 3172,
      "max": [
        0.9997568130493164,
        0.9625868797302246,
        0.9978818297386169
      ],
      "min": [
        -0.9971153140068054,
        -0.9595586061477661,
        -0.99974125623703
      ],
      "type": "VEC3"
    },
    {
      "bufferView": 1,
      "byteOffset": 40320,
      "componentType": 5126,
      "count": 3172,
      "max": [
        1.0,
        1.0
      ],
      "min": [
        0.0,
        0.5
      ],
      "type": "VEC2"
    },
    {
      "bufferView": 0,
      "byteOffset": 28872,
      "componentType": 5125,
      "count": 4758,
      "type": "SCALAR"
    }
  ],
  "asset": {
    "extras": {
      "author": "supcyber (https://sketchfab.com/supcyber)",
      "license": "CC-BY-4.0 (http://creativecommons.org/licenses/by/4.0/)",
      "source": "https://sketchfab.com/3d-models/rasengan-3f438648b26d489099f2bbc7d0e946f0",
      "title": "Rasengan"
    },
    "generator": "Sketchfab-14.48.0",
    "version": "2.0"
  },
  "bufferViews": [
    {
      "buffer": 0,
      "byteLength": 47904,
      "name": "floatBufferViews",
      "target": 34963
    },
    {
      "buffer": 0,
      "byteLength": 65696,
      "byteOffset": 47904,
      "byteStride": 8,
      "name": "floatBufferViews",
      "target": 34962
    },
    {
      "buffer": 0,
      "byteLength": 197088,
      "byteOffset": 113600,
      "byteStride": 12,
      "name": "floatBufferViews",
      "target": 34962
    }
  ],
  "buffers": [
    {
      "byteLength": 310688,
      "uri": "scene.bin"
    }
  ],
  "materials": [
    {
      "doubleSided": true,
      "emissiveFactor": [
        0.014443,
        0.23074,
        1.0
      ],
      "name": "Material.001"
    },
    {
      "doubleSided": true,
      "emissiveFactor": [
        0.00518088,
        0.0116119,
        1.0
      ],
      "name": "Material.002"
    },
    {
      "doubleSided": true,
      "emissiveFactor": [
        0.014443,
        0.23074,
        1.0
      ],
      "name": "Material.003"
    }
  ],
  "meshes": [
    {
      "name": "Object_0",
      "primitives": [
        {
          "attributes": {
            "NORMAL": 1,
            "POSITION": 0,
            "TEXCOORD_0": 2
          },
          "indices": 3,
          "material": 0,
          "mode": 4
        }
      ]
    },
    {
      "name": "Object_1",
      "primitives": [
        {
          "attributes": {
            "NORMAL": 5,
            "POSITION": 4,
            "TEXCOORD_0": 6
          },
          "indices": 7,
          "material": 1,
          "mode": 4
        }
      ]
    },
    {
      "name": "Object_2",
      "primitives": [
        {
          "attributes": {
            "NORMAL": 9,
            "POSITION": 8,
            "TEXCOORD_0": 10
          },
          "indices": 11,
          "material": 2,
          "mode": 4
        }
      ]
    }
  ],
  "nodes": [
    {
      "children": [
        1
      ],
      "matrix": [
        1.0,
        0.0,
        0.0,
        0.0,
        0.0,
        2.220446049250313e-16,
        -1.0,
        0.0,
        0.0,
        1.0,
        2.220446049250313e-16,
        0.0,
        0.0,
        0.0,
        0.0,
        1.0
      ],
      "name": "Sketchfab_model"
    },
    {
      "children": [
        2
      ],
      "name": "root"
    },
    {
      "children": [
        3,
        5,
        7
      ],
      "matrix": [
        1.0,
        0.0,
        0.0,
        0.0,
        0.0,
        2.220446049250313e-16,
        1.0,
        0.0,
        0.0,
        -1.0,
        2.220446049250313e-16,
        0.0,
        0.0,
        0.0,
        0.0,
        1.0
      ],
      "name": "GLTF_SceneRootNode"
    },
    {
      "children": [
        4
      ],
      "name": "Sphere_2"
    },
    {
      "mesh": 0,
      "name": "Object_4"
    },
    {
      "children": [
        6
      ],
      "matrix": [
        0.7817097902297974,
        0.0,
        0.0,
        0.0,
        0.0,
        0.7817097902297974,
        0.0,
        0.0,
        0.0,
        0.0,
        0.7817097902297974,
        0.0,
        0.0,
        0.0,
        0.0,
        1.0
      ],
      "name": "Sphere.001_4"
    },
    {
      "mesh": 1,
      "name": "Object_6"
    },
    {
      "children": [
        8
      ],
      "matrix": [
        1.7648097276687622,
        0.0,
        0.0,
        0.0,
        0.0,
        0.3068940043449402,
        0.0,
        0.0,
        0.0,
        0.0,
        1.7648097276687622,
        0.0,
        0.0,
        0.0,
        -3.0431694984436035,
        1.0
      ],
      "name": "Cylinder_5"
    },
    {
      "mesh": 2,
      "name": "Object_8"
    }
  ],
  "scene": 0,
  "scenes": [
    {
      "name": "Sketchfab_Scene",
      "nodes": [
        0
      ]
    }
  ]
}
